{"accessors":[{"bufferView":0,"componentType":5126,"count":522,"max":[0.5,1.0,0.5],"min":[-0.5,-1.0,-0.5],"normalized":false,"type":"VEC3"},{"bufferView":1,"componentType":5126,"count":522,"max":[1.0,0.0,1.0,1.0],"min":[-1.0,-0.0000215795153053477,-1.0,1.0],"normalized":false,"type":"VEC4"},{"bufferView":2,"componentType":5126,"count":522,"max":[1.0,1.0,1.0],"min":[-1.0,-1.0,-1.0],"normalized":false,"type":"VEC3"},{"bufferView":3,"componentType":5126,"count":522,"max":[1.0,1.0],"min":[0.0,0.0],"normalized":false,"type":"VEC2"},{"bufferView":4,"componentType":5123,"count":2304,"max":[521.0],"min":[0.0],"normalized":false,"type":"SCALAR"},{"bufferView":5,"componentType":5126,"count":2210,"max":[0.499433666467667,0.5,0.499433666467667],"min":[-0.499433666467667,-0.5,-0.499433666467667],"normalized":false,"type":"VEC3"},{"bufferView":6,"componentType":5126,"count":2210,"max":[1.0,0.0,1.0,1.0],"min":[-1.0,-0.0000215795153053477,-1.0,1.0],"normalized":false,"type":"VEC4"},{"bufferView":7,"componentType":5126,"count":2210,"max":[0.998868048191071,1.0,0.998868048191071],"min":[-0.998868823051453,-1.0,-0.998867213726044],"normalized":false,"type":"VEC3"},{"bufferView":8,"componentType":5126,"count":2210,"max":[1.0,1.0],"min":[0.0,0.0],"normalized":false,"type":"VEC2"},{"bufferView":9,"componentType":5123,"count":12672,"max":[2209.0],"min":[0.0],"normalized":false,"type":"SCALAR"},{"bufferView":10,"componentType":5126,"count":2210,"max":[0.499433666467667,0.5,0.499433666467667],"min":[-0.499433666467667,-0.5,-0.499433666467667],"normalized":false,"type":"VEC3"},{"bufferView":11,"componentType":5126,"count":2210,"max":[1.0,0.0,1.0,1.0],"min":[-1.0,-0.0000215795153053477,-1.0,1.0],"normalized":false,"type":"VEC4"},{"bufferView":12,"componentType":5126,"count":2210,"max":[0.998868048191071,1.0,0.998868048191071],"min":[-0.998868823051453,-1.0,-0.998867213726044],"normalized":false,"type":"VEC3"},{"bufferView":13,"componentType":5126,"count":2210,"max":[1.0,1.0],"min":[0.0,0.0],"normalized":false,"type":"VEC2"},{"bufferView":14,"componentType":5123,"count":12672,"max":[2209.0],"min":[0.0],"normalized":false,"type":"SCALAR"},{"bufferView":15,"componentType":5126,"count":2210,"max":[0.499433666467667,0.5,0.499433666467667],"min":[-0.499433666467667,-0.5,-0.499433666467667],"normalized":false,"type":"VEC3"},{"bufferView":16,"componentType":5126,"count":2210,"max":[1.0,0.0,1.0,1.0],"min":[-1.0,-0.0000215795153053477,-1.0,1.0],"normalized":false,"type":"VEC4"},{"bufferView":17,"componentType":5126,"count":2210,"max":[0.998868048191071,1.0,0.998868048191071],"min":[-0.998868823051453,-1.0,-0.998867213726044],"normalized":false,"type":"VEC3"},{"bufferView":18,"componentType":5126,"count":2210,"max":[1.0,1.0],"min":[0.0,0.0],"normalized":false,"type":"VEC2"},{"bufferView":19,"componentType":5123,"count":12672,"max":[2209.0],"min":[0.0],"normalized":false,"type":"SCALAR"},{"bufferView":20,"componentType":5126,"count":2210,"max":[0.499433666467667,0.5,0.499433666467667],"min":[-0.499433666467667,-0.5,-0.499433666467667],"normalized":false,"type":"VEC3"},{"bufferView":21,"componentType":5126,"count":2210,"max":[1.0,0.0,1.0,1.0],"min":[-1.0,-0.0000215795153053477,-1.0,1.0],"normalized":false,"type":"VEC4"},{"bufferView":22,"componentType":5126,"count":2210,"max":[0.998868048191071,1.0,0.998868048191071],"min":[-0.998868823051453,-1.0,-0.998867213726044],"normalized":false,"type":"VEC3"},{"bufferView":23,"componentType":5126,"count":2210,"max":[1.0,1.0],"min":[0.0,0.0],"normalized":false,"type":"VEC2"},{"bufferView":24,"componentType":5123,"count":12672,"max":[2209.0],"min":[0.0],"normalized":false,"type":"SCALAR"},{"bufferView":25,"componentType":5126,"count":2210,"max":[0.499433666467667,0.5,0.499433666467667],"min":[-0.499433666467667,-0.5,-0.499433666467667],"normalized":false,"type":"VEC3"},{"bufferView":26,"componentType":5126,"count":2210,"max":[1.0,0.0,1.0,1.0],"min":[-1.0,-0.0000215795153053477,-1.0,1.0],"normalized":false,"type":"VEC4"},{"bufferView":27,"componentType":5126,"count":2210,"max":[0.998868048191071,1.0,0.998868048191071],"min":[-0.998868823051453,-1.0,-0.998867213726044],"normalized":false,"type":"VEC3"},{"bufferView":28,"componentType":5126,"count":2210,"max":[1.0,1.0],"min":[0.0,0.0],"normalized":false,"type":"VEC2"},{"bufferView":29,"componentType":5123,"count":12672,"max":[2209.0],"min":[0.0],"normalized":false,"type":"SCALAR"},{"bufferView":30,"componentType":5126,"count":2210,"max":[0.499433666467667,0.5,0.499433666467667],"min":[-0.499433666467667,-0.5,-0.499433666467667],"normalized":false,"type":"VEC3"},{"bufferView":31,"componentType":5126,"count":2210,"max":[1.0,0.0,1.0,1.0],"min":[-1.0,-0.0000215795153053477,-1.0,1.0],"normalized":false,"type":"VEC4"},{"bufferView":32,"componentType":5126,"count":2210,"max":[0.998868048191071,1.0,0.998868048191071],"min":[-0.998868823051453,-1.0,-0.998867213726044],"normalized":false,"type":"VEC3"},{"bufferView":33,"componentType":5126,"count":2210,"max":[1.0,1.0],"min":[0.0,0.0],"normalized":false,"type":"VEC2"},{"bufferView":34,"componentType":5123,"count":12672,"max":[2209.0],"min":[0.0],"normalized":false,"type":"SCALAR"},{"bufferView":35,"componentType":5126,"count":2210,"max":[0.499433666467667,0.5,0.499433666467667],"min":[-0.499433666467667,-0.5,-0.499433666467667],"normalized":false,"type":"VEC3"},{"bufferView":36,"componentType":5126,"count":2210,"max":[1.0,0.0,1.0,1.0],"min":[-1.0,-0.0000215795153053477,-1.0,1.0],"normalized":false,"type":"VEC4"},{"bufferView":37,"componentType":5126,"count":2210,"max":[0.998868048191071,1.0,0.998868048191071],"min":[-0.998868823051453,-1.0,-0.998867213726044],"normalized":false,"type":"VEC3"},{"bufferView":38,"componentType":5126,"count":2210,"max":[1.0,1.0],"min":[0.0,0.0],"normalized":false,"type":"VEC2"},{"bufferView":39,"componentType":5123,"count":12672,"max":[2209.0],"min":[0.0],"normalized":false,"type":"SCALAR"},{"bufferView":40,"componentType":5126,"count":2210,"max":[0.499433666467667,0.5,0.499433666467667],"min":[-0.499433666467667,-0.5,-0.499433666467667],"normalized":false,"type":"VEC3"},{"bufferView":41,"componentType":5126,"count":2210,"max":[1.0,0.0,1.0,1.0],"min":[-1.0,-0.0000215795153053477,-1.0,1.0],"normalized":false,"type":"VEC4"},{"bufferView":42,"componentType":5126,"count":2210,"max":[0.998868048191071,1.0,0.998868048191071],"min":[-0.998868823051453,-1.0,-0.998867213726044],"normalized":false,"type":"VEC3"},{"bufferView":43,"componentType":5126,"count":2210,"max":[1.0,1.0],"min":[0.0,0.0],"normalized":false,"type":"VEC2"},{"bufferView":44,"componentType":5123,"count":12672,"max":[2209.0],"min":[0.0],"normalized":false,"type":"SCALAR"},{"bufferView":45,"componentType":5126,"count":2210,"max":[0.499433666467667,0.5,0.499433666467667],"min":[-0.499433666467667,-0.5,-0.499433666467667],"normalized":false,"type":"VEC3"},{"bufferView":46,"componentType":5126,"count":2210,"max":[1.0,0.0,1.0,1.0],"min":[-1.0,-0.0000215795153053477,-1.0,1.0],"normalized":false,"type":"VEC4"},{"bufferView":47,"componentType":5126,"count":2210,"max":[0.998868048191071,1.0,0.998868048191071],"min":[-0.998868823051453,-1.0,-0.998867213726044],"normalized":false,"type":"VEC3"},{"bufferView":48,"componentType":5126,"count":2210,"max":[1.0,1.0],"min":[0.0,0.0],"normalized":false,"type":"VEC2"},{"bufferView":49,"componentType":5123,"count":12672,"max":[2209.0],"min":[0.0],"normalized":false,"type":"SCALAR"}],"asset":{"generator":"Godot Engine v4.5.stable.official@876b290332ec6f2e6d173d08162a02aa7e6ca46d","version":"2.0"},"bufferViews":[{"buffer":0,"byteLength":6264,"byteStride":12,"target":34962},{"buffer":0,"byteLength":8352,"byteOffset":6264,"byteStride":16,"target":34962},{"buffer":0,"byteLength":6264,"byteOffset":14616,"byteStride":12,"target":34962},{"buffer":0,"byteLength":4176,"byteOffset":20880,"byteStride":8,"target":34962},{"buffer":0,"byteLength":4608,"byteOffset":25056,"target":34963},{"buffer":0,"byteLength":26520,"byteOffset":29664,"byteStride":12,"target":34962},{"buffer":0,"byteLength":35360,"byteOffset":56184,"byteStride":16,"target":34962},{"buffer":0,"byteLength":26520,"byteOffset":91544,"byteStride":12,"target":34962},{"buffer":0,"byteLength":17680,"byteOffset":118064,"byteStride":8,"target":34962},{"buffer":0,"byteLength":25344,"byteOffset":135744,"target":34963},{"buffer":0,"byteLength":26520,"byteOffset":161088,"byteStride":12,"target":34962},{"buffer":0,"byteLength":35360,"byteOffset":187608,"byteStride":16,"target":34962},{"buffer":0,"byteLength":26520,"byteOffset":222968,"byteStride":12,"target":34962},{"buffer":0,"byteLength":17680,"byteOffset":249488,"byteStride":8,"target":34962},{"buffer":0,"byteLength":25344,"byteOffset":267168,"target":34963},{"buffer":0,"byteLength":26520,"byteOffset":292512,"byteStride":12,"target":34962},{"buffer":0,"byteLength":35360,"byteOffset":319032,"byteStride":16,"target":34962},{"buffer":0,"byteLength":26520,"byteOffset":354392,"byteStride":12,"target":34962},{"buffer":0,"byteLength":17680,"byteOffset":380912,"byteStride":8,"target":34962},{"buffer":0,"byteLength":25344,"byteOffset":398592,"target":34963},{"buffer":0,"byteLength":26520,"byteOffset":423936,"byteStride":12,"target":34962},{"buffer":0,"byteLength":35360,"byteOffset":450456,"byteStride":16,"target":34962},{"buffer":0,"byteLength":26520,"byteOffset":485816,"byteStride":12,"target":34962},{"buffer":0,"byteLength":17680,"byteOffset":512336,"byteStride":8,"target":34962},{"buffer":0,"byteLength":25344,"byteOffset":530016,"target":34963},{"buffer":0,"byteLength":26520,"byteOffset":555360,"byteStride":12,"target":34962},{"buffer":0,"byteLength":35360,"byteOffset":581880,"byteStride":16,"target":34962},{"buffer":0,"byteLength":26520,"byteOffset":617240,"byteStride":12,"target":34962},{"buffer":0,"byteLength":17680,"byteOffset":643760,"byteStride":8,"target":34962},{"buffer":0,"byteLength":25344,"byteOffset":661440,"target":34963},{"buffer":0,"byteLength":26520,"byteOffset":686784,"byteStride":12,"target":34962},{"buffer":0,"byteLength":35360,"byteOffset":713304,"byteStride":16,"target":34962},{"buffer":0,"byteLength":26520,"byteOffset":748664,"byteStride":12,"target":34962},{"buffer":0,"byteLength":17680,"byteOffset":775184,"byteStride":8,"target":34962},{"buffer":0,"byteLength":25344,"byteOffset":792864,"target":34963},{"buffer":0,"byteLength":26520,"byteOffset":818208,"byteStride":12,"target":34962},{"buffer":0,"byteLength":35360,"byteOffset":844728,"byteStride":16,"target":34962},{"buffer":0,"byteLength":26520,"byteOffset":880088,"byteStride":12,"target":34962},{"buffer":0,"byteLength":17680,"byteOffset":906608,"byteStride":8,"target":34962},{"buffer":0,"byteLength":25344,"byteOffset":924288,"target":34963},{"buffer":0,"byteLength":26520,"byteOffset":949632,"byteStride":12,"target":34962},{"buffer":0,"byteLength":35360,"byteOffset":976152,"byteStride":16,"target":34962},{"buffer":0,"byteLength":26520,"byteOffset":1011512,"byteStride":12,"target":34962},{"buffer":0,"byteLength":17680,"byteOffset":1038032,"byteStride":8,"target":34962},{"buffer":0,"byteLength":25344,"byteOffset":1055712,"target":34963},{"buffer":0,"byteLength":26520,"byteOffset":1081056,"byteStride":12,"target":34962},{"buffer":0,"byteLength":35360,"byteOffset":1107576,"byteStride":16,"target":34962},{"buffer":0,"byteLength":26520,"byteOffset":1142936,"byteStride":12,"target":34962},{"buffer":0,"byteLength":17680,"byteOffset":1169456,"byteStride":8,"target":34962},{"buffer":0,"byteLength":25344,"byteOffset":1187136,"target":34963}],"buffers":[{"byteLength":1212480,"uri":"flowerz0.bin"}],"extensions":{"OMI_physics_shape":{"shapes":[{"sphere":{"radius":0.5},"type":"sphere"}]}},"extensionsUsed":["GODOT_single_root","OMI_physics_body","OMI_physics_shape"],"materials":[{"extensions":{},"pbrMetallicRoughness":{"baseColorFactor":[0.0000000819563865661621,0.44265228509903,0.0000000894069742685133,1.0],"metallicFactor":0.0,"roughnessFactor":1.0}},{"extensions":{},"pbrMetallicRoughness":{"baseColorFactor":[0.607620537281036,0.604071855545044,0.0,1.0],"metallicFactor":0.0,"roughnessFactor":1.0}},{},{},{},{},{},{},{},{}],"meshes":[{"primitives":[{"attributes":{"NORMAL":2,"POSITION":0,"TANGENT":1,"TEXCOORD_0":3},"indices":4,"material":0,"mode":4}]},{"primitives":[{"attributes":{"NORMAL":7,"POSITION":5,"TANGENT":6,"TEXCOORD_0":8},"indices":9,"material":1,"mode":4}]},{"primitives":[{"attributes":{"NORMAL":12,"POSITION":10,"TANGENT":11,"TEXCOORD_0":13},"indices":14,"material":2,"mode":4}]},{"primitives":[{"attributes":{"NORMAL":17,"POSITION":15,"TANGENT":16,"TEXCOORD_0":18},"indices":19,"material":3,"mode":4}]},{"primitives":[{"attributes":{"NORMAL":22,"POSITION":20,"TANGENT":21,"TEXCOORD_0":23},"indices":24,"material":4,"mode":4}]},{"primitives":[{"attributes":{"NORMAL":27,"POSITION":25,"TANGENT":26,"TEXCOORD_0":28},"indices":29,"material":5,"mode":4}]},{"primitives":[{"attributes":{"NORMAL":32,"POSITION":30,"TANGENT":31,"TEXCOORD_0":33},"indices":34,"material":6,"mode":4}]},{"primitives":[{"attributes":{"NORMAL":37,"POSITION":35,"TANGENT":36,"TEXCOORD_0":38},"indices":39,"material":7,"mode":4}]},{"primitives":[{"attributes":{"NORMAL":42,"POSITION":40,"TANGENT":41,"TEXCOORD_0":43},"indices":44,"material":8,"mode":4}]},{"primitives":[{"attributes":{"NORMAL":47,"POSITION":45,"TANGENT":46,"TEXCOORD_0":48},"indices":49,"material":9,"mode":4}]}],"nodes":[{"children":[1,2,4,5,6,7,8,9,10,11,12],"name":"Flower"},{"mesh":0,"name":"MeshInstance3D","scale":[0.0500000007450581,0.5,0.0500000007450581],"translation":[0.0,0.600000023841858,0.0]},{"children":[3],"mesh":1,"name":"MeshInstance3D2","scale":[0.200000002980232,0.100000001490116,0.200000002980232],"translation":[0.0,1.10000002384186,0.0]},{"name":"CPUParticles3D","scale":[1.0,2.0,1.0]},{"mesh":2,"name":"Petal","scale":[0.200000002980232,0.0500000007450581,0.150000005960464],"translation":[0.200000002980232,1.10000002384186,0.0]},{"mesh":3,"name":"Petal2","rotation":[0.0,0.382683455944061,0.0,0.923879563808441],"scale":[0.200000002980232,0.0500000007450581,0.150000005960464],"translation":[0.150000005960464,1.10000002384186,-0.129999995231628]},{"mesh":4,"name":"Petal3","rotation":[0.0,0.70710676908493,0.0,0.70710676908493],"scale":[0.200000002980232,0.0500000007450581,0.150000005960464],"translation":[0.000795155763626099,1.10000002384186,-0.183904528617859]},{"mesh":5,"name":"Petal4","rotation":[0.0,0.923879563808441,0.0,0.382683455944061],"scale":[0.200000002980232,0.0500000007450581,0.150000005960464],"translation":[0.130479887127876,1.10000002384186,0.139040291309357]},{"mesh":6,"name":"Petal5","rotation":[0.0,1.0,0.0,-0.0000000437113882867379],"scale":[0.200000002980232,0.0500000007450581,0.150000005960464],"translation":[-0.202485010027885,1.10000002384186,-0.0109769478440285]},{"mesh":7,"name":"Petal6","rotation":[0.0,0.382683455944061,0.0,0.923879563808441],"scale":[0.200000002980232,0.0500000007450581,0.150000005960464],"translation":[-0.147600814700127,1.10000002384186,0.124404542148113]},{"mesh":8,"name":"Petal7","rotation":[0.0,0.70710676908493,0.0,0.70710676908493],"scale":[0.200000002980232,0.0500000007450581,0.150000005960464],"translation":[-0.00856046378612518,1.10000002384186,0.193924710154533]},{"mesh":9,"name":"Petal8","rotation":[0.0,0.923879563808441,0.0,0.382683455944061],"scale":[0.200000002980232,0.0500000007450581,0.150000005960464],"translation":[-0.143941923975945,1.10000002384186,-0.139040365815163]},{"children":[13,14],"extensions":{"OMI_physics_body":{"trigger":{"nodes":[13.0]}}},"name":"Area3D"},{"extensions":{"OMI_physics_body":{"trigger":null}},"name":"CollisionShape3D","scale":[0.75,0.75,0.75],"translation":[0.0,1.20000004768372,0.0]},{"name":"XRToolsInteractableBody"}],"scene":0,"scenes":[{"nodes":[0]}]}