{"accessors":[{"bufferView":0,"componentType":5126,"count":2210,"max":[0.499433666467667,0.5,0.499433666467667],"min":[-0.499433666467667,-0.5,-0.499433666467667],"normalized":false,"type":"VEC3"},{"bufferView":1,"componentType":5126,"count":2210,"max":[1.0,0.0,1.0,1.0],"min":[-1.0,-0.0000215795153053477,-1.0,1.0],"normalized":false,"type":"VEC4"},{"bufferView":2,"componentType":5126,"count":2210,"max":[0.998868048191071,1.0,0.998868048191071],"min":[-0.998868823051453,-1.0,-0.998867213726044],"normalized":false,"type":"VEC3"},{"bufferView":3,"componentType":5126,"count":2210,"max":[1.0,1.0],"min":[0.0,0.0],"normalized":false,"type":"VEC2"},{"bufferView":4,"componentType":5123,"count":12672,"max":[2209.0],"min":[0.0],"normalized":false,"type":"SCALAR"},{"bufferView":5,"componentType":5126,"count":2210,"max":[0.499433666467667,0.5,0.499433666467667],"min":[-0.499433666467667,-0.5,-0.499433666467667],"normalized":false,"type":"VEC3"},{"bufferView":6,"componentType":5126,"count":2210,"max":[1.0,0.0,1.0,1.0],"min":[-1.0,-0.0000215795153053477,-1.0,1.0],"normalized":false,"type":"VEC4"},{"bufferView":7,"componentType":5126,"count":2210,"max":[0.998868048191071,1.0,0.998868048191071],"min":[-0.998868823051453,-1.0,-0.998867213726044],"normalized":false,"type":"VEC3"},{"bufferView":8,"componentType":5126,"count":2210,"max":[1.0,1.0],"min":[0.0,0.0],"normalized":false,"type":"VEC2"},{"bufferView":9,"componentType":5123,"count":12672,"max":[2209.0],"min":[0.0],"normalized":false,"type":"SCALAR"},{"bufferView":10,"componentType":5126,"count":2210,"max":[0.499433666467667,0.5,0.499433666467667],"min":[-0.499433666467667,-0.5,-0.499433666467667],"normalized":false,"type":"VEC3"},{"bufferView":11,"componentType":5126,"count":2210,"max":[1.0,0.0,1.0,1.0],"min":[-1.0,-0.0000215795153053477,-1.0,1.0],"normalized":false,"type":"VEC4"},{"bufferView":12,"componentType":5126,"count":2210,"max":[0.998868048191071,1.0,0.998868048191071],"min":[-0.998868823051453,-1.0,-0.998867213726044],"normalized":false,"type":"VEC3"},{"bufferView":13,"componentType":5126,"count":2210,"max":[1.0,1.0],"min":[0.0,0.0],"normalized":false,"type":"VEC2"},{"bufferView":14,"componentType":5123,"count":12672,"max":[2209.0],"min":[0.0],"normalized":false,"type":"SCALAR"},{"bufferView":15,"componentType":5126,"count":2210,"max":[0.499433666467667,0.5,0.499433666467667],"min":[-0.499433666467667,-0.5,-0.499433666467667],"normalized":false,"type":"VEC3"},{"bufferView":16,"componentType":5126,"count":2210,"max":[1.0,0.0,1.0,1.0],"min":[-1.0,-0.0000215795153053477,-1.0,1.0],"normalized":false,"type":"VEC4"},{"bufferView":17,"componentType":5126,"count":2210,"max":[0.998868048191071,1.0,0.998868048191071],"min":[-0.998868823051453,-1.0,-0.998867213726044],"normalized":false,"type":"VEC3"},{"bufferView":18,"componentType":5126,"count":2210,"max":[1.0,1.0],"min":[0.0,0.0],"normalized":false,"type":"VEC2"},{"bufferView":19,"componentType":5123,"count":12672,"max":[2209.0],"min":[0.0],"normalized":false,"type":"SCALAR"},{"bufferView":20,"componentType":5126,"count":2210,"max":[0.499433666467667,0.5,0.499433666467667],"min":[-0.499433666467667,-0.5,-0.499433666467667],"normalized":false,"type":"VEC3"},{"bufferView":21,"componentType":5126,"count":2210,"max":[1.0,0.0,1.0,1.0],"min":[-1.0,-0.0000215795153053477,-1.0,1.0],"normalized":false,"type":"VEC4"},{"bufferView":22,"componentType":5126,"count":2210,"max":[0.998868048191071,1.0,0.998868048191071],"min":[-0.998868823051453,-1.0,-0.998867213726044],"normalized":false,"type":"VEC3"},{"bufferView":23,"componentType":5126,"count":2210,"max":[1.0,1.0],"min":[0.0,0.0],"normalized":false,"type":"VEC2"},{"bufferView":24,"componentType":5123,"count":12672,"max":[2209.0],"min":[0.0],"normalized":false,"type":"SCALAR"},{"bufferView":25,"componentType":5126,"count":2210,"max":[0.499433666467667,0.5,0.499433666467667],"min":[-0.499433666467667,-0.5,-0.499433666467667],"normalized":false,"type":"VEC3"},{"bufferView":26,"componentType":5126,"count":2210,"max":[1.0,0.0,1.0,1.0],"min":[-1.0,-0.0000215795153053477,-1.0,1.0],"normalized":false,"type":"VEC4"},{"bufferView":27,"componentType":5126,"count":2210,"max":[0.998868048191071,1.0,0.998868048191071],"min":[-0.998868823051453,-1.0,-0.998867213726044],"normalized":false,"type":"VEC3"},{"bufferView":28,"componentType":5126,"count":2210,"max":[1.0,1.0],"min":[0.0,0.0],"normalized":false,"type":"VEC2"},{"bufferView":29,"componentType":5123,"count":12672,"max":[2209.0],"min":[0.0],"normalized":false,"type":"SCALAR"},{"bufferView":30,"componentType":5126,"count":2210,"max":[0.499433666467667,0.5,0.499433666467667],"min":[-0.499433666467667,-0.5,-0.499433666467667],"normalized":false,"type":"VEC3"},{"bufferView":31,"componentType":5126,"count":2210,"max":[1.0,0.0,1.0,1.0],"min":[-1.0,-0.0000215795153053477,-1.0,1.0],"normalized":false,"type":"VEC4"},{"bufferView":32,"componentType":5126,"count":2210,"max":[0.998868048191071,1.0,0.998868048191071],"min":[-0.998868823051453,-1.0,-0.998867213726044],"normalized":false,"type":"VEC3"},{"bufferView":33,"componentType":5126,"count":2210,"max":[1.0,1.0],"min":[0.0,0.0],"normalized":false,"type":"VEC2"},{"bufferView":34,"componentType":5123,"count":12672,"max":[2209.0],"min":[0.0],"normalized":false,"type":"SCALAR"},{"bufferView":35,"componentType":5126,"count":2210,"max":[0.499433666467667,0.5,0.499433666467667],"min":[-0.499433666467667,-0.5,-0.499433666467667],"normalized":false,"type":"VEC3"},{"bufferView":36,"componentType":5126,"count":2210,"max":[1.0,0.0,1.0,1.0],"min":[-1.0,-0.0000215795153053477,-1.0,1.0],"normalized":false,"type":"VEC4"},{"bufferView":37,"componentType":5126,"count":2210,"max":[0.998868048191071,1.0,0.998868048191071],"min":[-0.998868823051453,-1.0,-0.998867213726044],"normalized":false,"type":"VEC3"},{"bufferView":38,"componentType":5126,"count":2210,"max":[1.0,1.0],"min":[0.0,0.0],"normalized":false,"type":"VEC2"},{"bufferView":39,"componentType":5123,"count":12672,"max":[2209.0],"min":[0.0],"normalized":false,"type":"SCALAR"}],"asset":{"generator":"Godot Engine v4.5.stable.official@876b290332ec6f2e6d173d08162a02aa7e6ca46d","version":"2.0"},"bufferViews":[{"buffer":0,"byteLength":26520,"byteStride":12,"target":34962},{"buffer":0,"byteLength":35360,"byteOffset":26520,"byteStride":16,"target":34962},{"buffer":0,"byteLength":26520,"byteOffset":61880,"byteStride":12,"target":34962},{"buffer":0,"byteLength":17680,"byteOffset":88400,"byteStride":8,"target":34962},{"buffer":0,"byteLength":25344,"byteOffset":106080,"target":34963},{"buffer":0,"byteLength":26520,"byteOffset":131424,"byteStride":12,"target":34962},{"buffer":0,"byteLength":35360,"byteOffset":157944,"byteStride":16,"target":34962},{"buffer":0,"byteLength":26520,"byteOffset":193304,"byteStride":12,"target":34962},{"buffer":0,"byteLength":17680,"byteOffset":219824,"byteStride":8,"target":34962},{"buffer":0,"byteLength":25344,"byteOffset":237504,"target":34963},{"buffer":0,"byteLength":26520,"byteOffset":262848,"byteStride":12,"target":34962},{"buffer":0,"byteLength":35360,"byteOffset":289368,"byteStride":16,"target":34962},{"buffer":0,"byteLength":26520,"byteOffset":324728,"byteStride":12,"target":34962},{"buffer":0,"byteLength":17680,"byteOffset":351248,"byteStride":8,"target":34962},{"buffer":0,"byteLength":25344,"byteOffset":368928,"target":34963},{"buffer":0,"byteLength":26520,"byteOffset":394272,"byteStride":12,"target":34962},{"buffer":0,"byteLength":35360,"byteOffset":420792,"byteStride":16,"target":34962},{"buffer":0,"byteLength":26520,"byteOffset":456152,"byteStride":12,"target":34962},{"buffer":0,"byteLength":17680,"byteOffset":482672,"byteStride":8,"target":34962},{"buffer":0,"byteLength":25344,"byteOffset":500352,"target":34963},{"buffer":0,"byteLength":26520,"byteOffset":525696,"byteStride":12,"target":34962},{"buffer":0,"byteLength":35360,"byteOffset":552216,"byteStride":16,"target":34962},{"buffer":0,"byteLength":26520,"byteOffset":587576,"byteStride":12,"target":34962},{"buffer":0,"byteLength":17680,"byteOffset":614096,"byteStride":8,"target":34962},{"buffer":0,"byteLength":25344,"byteOffset":631776,"target":34963},{"buffer":0,"byteLength":26520,"byteOffset":657120,"byteStride":12,"target":34962},{"buffer":0,"byteLength":35360,"byteOffset":683640,"byteStride":16,"target":34962},{"buffer":0,"byteLength":26520,"byteOffset":719000,"byteStride":12,"target":34962},{"buffer":0,"byteLength":17680,"byteOffset":745520,"byteStride":8,"target":34962},{"buffer":0,"byteLength":25344,"byteOffset":763200,"target":34963},{"buffer":0,"byteLength":26520,"byteOffset":788544,"byteStride":12,"target":34962},{"buffer":0,"byteLength":35360,"byteOffset":815064,"byteStride":16,"target":34962},{"buffer":0,"byteLength":26520,"byteOffset":850424,"byteStride":12,"target":34962},{"buffer":0,"byteLength":17680,"byteOffset":876944,"byteStride":8,"target":34962},{"buffer":0,"byteLength":25344,"byteOffset":894624,"target":34963},{"buffer":0,"byteLength":26520,"byteOffset":919968,"byteStride":12,"target":34962},{"buffer":0,"byteLength":35360,"byteOffset":946488,"byteStride":16,"target":34962},{"buffer":0,"byteLength":26520,"byteOffset":981848,"byteStride":12,"target":34962},{"buffer":0,"byteLength":17680,"byteOffset":1008368,"byteStride":8,"target":34962},{"buffer":0,"byteLength":25344,"byteOffset":1026048,"target":34963}],"buffers":[{"byteLength":1051392,"uri":"petals0.bin"}],"extensionsUsed":["GODOT_single_root"],"materials":[{},{},{},{},{},{},{},{}],"meshes":[{"primitives":[{"attributes":{"NORMAL":2,"POSITION":0,"TANGENT":1,"TEXCOORD_0":3},"indices":4,"material":0,"mode":4}]},{"primitives":[{"attributes":{"NORMAL":7,"POSITION":5,"TANGENT":6,"TEXCOORD_0":8},"indices":9,"material":1,"mode":4}]},{"primitives":[{"attributes":{"NORMAL":12,"POSITION":10,"TANGENT":11,"TEXCOORD_0":13},"indices":14,"material":2,"mode":4}]},{"primitives":[{"attributes":{"NORMAL":17,"POSITION":15,"TANGENT":16,"TEXCOORD_0":18},"indices":19,"material":3,"mode":4}]},{"primitives":[{"attributes":{"NORMAL":22,"POSITION":20,"TANGENT":21,"TEXCOORD_0":23},"indices":24,"material":4,"mode":4}]},{"primitives":[{"attributes":{"NORMAL":27,"POSITION":25,"TANGENT":26,"TEXCOORD_0":28},"indices":29,"material":5,"mode":4}]},{"primitives":[{"attributes":{"NORMAL":32,"POSITION":30,"TANGENT":31,"TEXCOORD_0":33},"indices":34,"material":6,"mode":4}]},{"primitives":[{"attributes":{"NORMAL":37,"POSITION":35,"TANGENT":36,"TEXCOORD_0":38},"indices":39,"material":7,"mode":4}]}],"nodes":[{"children":[1,2,3,4,5,6,7,8],"name":"MeshInstance3D3","scale":[0.00999999977648258,0.00999999977648258,0.00999999977648258]},{"mesh":0,"name":"Petal","scale":[0.200000002980232,0.0500000007450581,0.150000005960464],"translation":[0.200000002980232,1.10000002384186,0.0]},{"mesh":1,"name":"Petal2","rotation":[0.0,0.382683455944061,0.0,0.923879563808441],"scale":[0.200000002980232,0.0500000007450581,0.150000005960464],"translation":[0.150000005960464,1.10000002384186,-0.129999995231628]},{"mesh":2,"name":"Petal3","rotation":[0.0,0.70710676908493,0.0,0.70710676908493],"scale":[0.200000002980232,0.0500000007450581,0.150000005960464],"translation":[0.000795155763626099,1.10000002384186,-0.183904528617859]},{"mesh":3,"name":"Petal4","rotation":[0.0,0.923879563808441,0.0,0.382683455944061],"scale":[0.200000002980232,0.0500000007450581,0.150000005960464],"translation":[0.130479887127876,1.10000002384186,0.139040291309357]},{"mesh":4,"name":"Petal5","rotation":[0.0,1.0,0.0,-0.0000000437113882867379],"scale":[0.200000002980232,0.0500000007450581,0.150000005960464],"translation":[-0.202485010027885,1.10000002384186,-0.0109769478440285]},{"mesh":5,"name":"Petal6","rotation":[0.0,0.382683455944061,0.0,0.923879563808441],"scale":[0.200000002980232,0.0500000007450581,0.150000005960464],"translation":[-0.147600814700127,1.10000002384186,0.124404542148113]},{"mesh":6,"name":"Petal7","rotation":[0.0,0.70710676908493,0.0,0.70710676908493],"scale":[0.200000002980232,0.0500000007450581,0.150000005960464],"translation":[-0.00856046378612518,1.10000002384186,0.193924710154533]},{"mesh":7,"name":"Petal8","rotation":[0.0,0.923879563808441,0.0,0.382683455944061],"scale":[0.200000002980232,0.0500000007450581,0.150000005960464],"translation":[-0.143941923975945,1.10000002384186,-0.139040365815163]}],"scene":0,"scenes":[{"nodes":[0]}]}